<svg xmlns="http://www.w3.org/2000/svg" xmlns:xlink="http://www.w3.org/1999/xlink" width="500" zoomAndPan="magnify" viewBox="0 0 375 374.999991" height="500" preserveAspectRatio="xMidYMid meet" version="1.0"><defs><g/><clipPath id="fad043d16b"><path d="M 187.5 0 C 83.945312 0 0 83.945312 0 187.5 C 0 291.054688 83.945312 375 187.5 375 C 291.054688 375 375 291.054688 375 187.5 C 375 83.945312 291.054688 0 187.5 0 Z M 187.5 0 " clip-rule="nonzero"/></clipPath></defs><g clip-path="url(#fad043d16b)"><rect x="-37.5" width="450" fill="#693ac6" y="-37.499999" height="449.999989" fill-opacity="1"/></g><g fill="#f8f8ff" fill-opacity="1"><g transform="translate(68.723625, 264.381366)"><g><path d="M 92.828125 -42 C 92.828125 -28.664062 88.164062 -17.960938 78.84375 -9.890625 C 69.53125 -1.828125 55.9375 2.203125 38.0625 2.203125 C 24.664062 2.203125 13.320312 1.273438 4.03125 -0.578125 L 4.03125 -29.59375 L 7.5 -29.59375 C 15.507812 -26.457031 22.972656 -24.890625 29.890625 -24.890625 C 37.765625 -24.890625 43.523438 -26.101562 47.171875 -28.53125 C 50.828125 -30.96875 53.203125 -34.109375 54.296875 -37.953125 C 55.390625 -41.796875 55.9375 -49.070312 55.9375 -59.78125 L 55.9375 -116.765625 L 23.15625 -116.765625 L 23.15625 -143.09375 L 92.828125 -143.09375 Z M 92.828125 -42 "/></g></g></g><g fill="#f8f8ff" fill-opacity="1"><g transform="translate(172.086788, 264.381366)"><g><path d="M 130.21875 -115.421875 L 85.53125 -115.421875 L 85.53125 0 L 48.625 0 L 48.625 -115.421875 L 3.9375 -115.421875 L 3.9375 -143.09375 L 130.21875 -143.09375 Z M 130.21875 -115.421875 "/></g></g></g></svg>